<svg xmlns="http://www.w3.org/2000/svg" width="1400" height="460" viewBox="0 0 1400 460" role="img" aria-labelledby="title desc">
  <title id="title">FarmGenius monochrome logo</title>
  <desc id="desc">Single-color logo version for documents, uniforms, engraving, and farm signage.</desc>

  <rect width="1400" height="460" fill="#FFFFFF"/>

  <g>
    <circle cx="230" cy="230" r="172" fill="none" stroke="#111111" stroke-width="22"/>
    <circle cx="230" cy="230" r="144" fill="#FFFFFF" stroke="#111111" stroke-width="4"/>

    <path d="M98 304 C154 267, 205 254, 254 270 C305 286, 339 272, 362 255 L362 360 L98 360 Z" fill="#111111" fill-opacity="0.18"/>
    <path d="M98 332 C154 296, 205 285, 254 302 C305 319, 339 306, 362 290 L362 360 L98 360 Z" fill="#111111" fill-opacity="0.28"/>

    <path d="M230 160 C232 226, 213 270, 190 306 C217 292, 237 273, 252 245 C268 273, 287 292, 314 306 C291 270, 272 226, 274 160" fill="#111111"/>
    <circle cx="230" cy="165" r="44" fill="#111111" fill-opacity="0.15"/>
  </g>

  <g transform="translate(440,108)">
    <text x="0" y="130" font-size="108" font-family="Georgia, 'Times New Roman', serif" font-weight="700" fill="#111111" letter-spacing="1.5">FARMGENIUS</text>
    <rect x="2" y="154" width="630" height="4" fill="#111111"/>
    <text x="0" y="214" font-size="42" font-family="Arial, Helvetica, sans-serif" font-weight="600" fill="#111111" letter-spacing="1.1">DR. PF FARM TRUST</text>
    <text x="0" y="264" font-size="26" font-family="Arial, Helvetica, sans-serif" fill="#111111" fill-opacity="0.8" letter-spacing="0.8">In honor of Dr. Pascal Fidelis Mujuni</text>
  </g>
</svg>